<svg width="32" height="33" viewBox="0 0 32 33" fill="none" xmlns="http://www.w3.org/2000/svg">
<path d="M24.4853 9.05672L24.4556 9.03775L20.6967 7.14697L16.6396 12.6701L18.5062 15.2113C18.4503 16.1697 18.0523 17.0739 17.3874 17.7527C16.7225 18.4316 15.8369 18.838 14.8983 18.895L12.4094 16.9892L7 21.1315L8.83645 24.9373L8.8519 24.9694L8.87052 24.9997C8.96852 25.161 9.10531 25.2939 9.26786 25.3859C9.43041 25.4779 9.61331 25.5259 9.79916 25.5253H10.7691C12.6379 25.5253 14.4885 25.1494 16.215 24.4192C17.9416 23.689 19.5104 22.6187 20.8319 21.2695C22.1533 19.9203 23.2016 18.3185 23.9167 16.5556C24.6319 14.7928 25 12.9033 25 10.9952V10.0049C25.0006 9.81512 24.9536 9.62838 24.8635 9.46241C24.7734 9.29644 24.6432 9.15678 24.4853 9.05672ZM23.6109 10.9952C23.6109 18.2251 17.8501 24.107 10.7691 24.107H9.98426L8.75553 21.5602L12.4097 18.762L14.4441 20.3198H14.6756C16.0613 20.3182 17.3897 19.7555 18.3695 18.7551C19.3493 17.7547 19.9004 16.3983 19.902 14.9836V14.7472L18.3762 12.6701L21.1165 8.93935L23.6109 10.1941V10.9952Z" fill="#FF793B"/>
</svg>
