<svg width="32" height="32" viewBox="0 0 32 32" fill="none" xmlns="http://www.w3.org/2000/svg">
<g clip-path="url(#clip0_1_11882)">
<g clip-path="url(#clip1_1_11882)">
<g clip-path="url(#clip2_1_11882)">
<path d="M31.625 16C31.625 7.37055 24.6294 0.375 16 0.375C7.37055 0.375 0.375 7.37055 0.375 16C0.375 24.6294 7.37055 31.625 16 31.625C24.6294 31.625 31.625 24.6294 31.625 16Z" fill="black"/>
<path d="M12.875 13.5V13.125H12.5H9.5H9.125V13.5V22V22.375H9.5H12.5H12.875V22V13.5ZM18.5 22.375H18.875V22V17.296C18.875 16.8071 19.0327 16.4751 19.2366 16.267C19.4435 16.0559 19.7202 15.949 20 15.949C20.2798 15.949 20.5565 16.0559 20.7634 16.267C20.9673 16.4751 21.125 16.8071 21.125 17.296V22V22.375H21.5H24.4998H24.8748V22V17C24.8748 15.5813 24.48 14.4794 23.7727 13.7298C23.0638 12.9785 22.0825 12.625 21 12.625C20.1667 12.625 19.5583 12.8776 19.104 13.228C19.0223 13.291 18.9461 13.3568 18.875 13.4241V13.125H18.5H15.5H15.125V13.5V22V22.375H15.5H18.5ZM11 12.375C12.0355 12.375 12.875 11.5355 12.875 10.5C12.875 9.46447 12.0355 8.625 11 8.625C9.96447 8.625 9.125 9.46447 9.125 10.5C9.125 11.5355 9.96447 12.375 11 12.375Z" stroke="white" stroke-width="0.75"/>
</g>
</g>
</g>
<defs>
<clipPath id="clip0_1_11882">
<rect width="32" height="32" fill="white"/>
</clipPath>
<clipPath id="clip1_1_11882">
<rect width="32" height="32" fill="white"/>
</clipPath>
<clipPath id="clip2_1_11882">
<rect width="32" height="32" fill="white"/>
</clipPath>
</defs>
</svg>
