<svg width="14" height="14" viewBox="0 0 14 14" fill="none" xmlns="http://www.w3.org/2000/svg">
<path d="M3.96374 4.78624C3.83933 4.67032 3.67479 4.60721 3.50478 4.61021C3.33477 4.61321 3.17256 4.68208 3.05232 4.80232C2.93208 4.92255 2.86321 5.08477 2.86021 5.25478C2.85721 5.42479 2.92032 5.58933 3.03624 5.71374L6.53624 9.21374C6.65826 9.33586 6.82348 9.40498 6.99611 9.40612C7.16873 9.40727 7.33486 9.34035 7.45849 9.21986L10.9585 5.80474C11.0804 5.68257 11.1493 5.51729 11.1502 5.3447C11.1512 5.17211 11.0841 5.00609 10.9635 4.88262C10.8429 4.75914 10.6785 4.68815 10.5059 4.68501C10.3333 4.68188 10.1665 4.74685 10.0415 4.86586L7.00524 7.82774L3.96374 4.78624Z" fill="#D0D6E0"/>
</svg>
