<svg width="136" height="40" viewBox="0 0 136 40" fill="none" xmlns="http://www.w3.org/2000/svg">
<path fill-rule="evenodd" clip-rule="evenodd" d="M29.837 13.1395C29.7855 13.1968 29.7579 13.2717 29.7602 13.3487C29.7625 13.4257 29.7944 13.4989 29.8493 13.553L43.843 27.5467C43.8971 27.6016 43.9702 27.6335 44.0473 27.6358C44.1243 27.638 44.1992 27.6105 44.2564 27.5589C45.3096 26.6033 46.1509 25.4376 46.7261 24.137C47.3013 22.8363 47.5976 21.4297 47.5959 20.0075C47.5959 14.3696 43.0263 9.80005 37.3891 9.80005C34.3958 9.80005 31.7043 11.088 29.837 13.1395ZM28.0881 15.7956C28.0632 15.8513 28.0558 15.9133 28.067 15.9733C28.0782 16.0333 28.1073 16.0885 28.1506 16.1315L41.2644 29.2453C41.3528 29.3337 41.4868 29.3596 41.6004 29.3079C41.9036 29.1705 42.1988 29.0189 42.4844 28.8536C42.5239 28.8306 42.5575 28.7987 42.5827 28.7605C42.6079 28.7223 42.6239 28.6788 42.6295 28.6334C42.635 28.588 42.6301 28.5419 42.6149 28.4987C42.5998 28.4555 42.5749 28.4164 42.5422 28.3845L29.0115 14.8538C28.9796 14.8211 28.9405 14.7962 28.8973 14.781C28.8541 14.7659 28.808 14.7609 28.7626 14.7665C28.7172 14.7721 28.6737 14.7881 28.6355 14.8133C28.5973 14.8384 28.5654 14.8721 28.5423 14.9116C28.3771 15.1972 28.2254 15.4923 28.0881 15.7956ZM27.2925 19.5506C27.262 19.5203 27.2384 19.4839 27.2231 19.4438C27.2079 19.4037 27.2014 19.3608 27.2041 19.318C27.2313 18.912 27.2823 18.5129 27.355 18.1212C27.3652 18.0684 27.3898 18.0194 27.4259 17.9796C27.4621 17.9397 27.5086 17.9107 27.5602 17.8955C27.6118 17.8803 27.6666 17.8797 27.7186 17.8936C27.7706 17.9075 27.8177 17.9354 27.8548 17.9743L39.4216 29.5411C39.4606 29.5783 39.4885 29.6254 39.5024 29.6774C39.5163 29.7294 39.5157 29.7842 39.5005 29.8358C39.4853 29.8874 39.4562 29.9338 39.4164 29.97C39.3766 30.0062 39.3276 30.0307 39.2748 30.0409C38.8792 30.1148 38.4795 30.1652 38.078 30.1919C38.0351 30.1946 37.9922 30.1881 37.9521 30.1728C37.912 30.1576 37.8756 30.1339 37.8454 30.1035L27.2918 19.5499L27.2925 19.5506ZM28.0024 22.3991C27.7916 22.1883 27.4516 22.3698 27.5284 22.6575C27.9945 24.385 28.9056 25.96 30.1708 27.2252C31.436 28.4904 33.011 29.4015 34.7385 29.8675C35.0261 29.9444 35.2077 29.6044 34.9969 29.3936L28.0024 22.3991ZM68.3264 15.4175C68.5008 15.4173 68.6734 15.3826 68.8344 15.3156C68.9953 15.2486 69.1416 15.1506 69.2646 15.0271C69.3877 14.9036 69.4852 14.757 69.5517 14.5958C69.6181 14.4345 69.6521 14.2618 69.6517 14.0874C69.6517 13.353 69.0588 12.758 68.3264 12.758C67.9745 12.7588 67.6372 12.8992 67.3888 13.1485C67.1405 13.3978 67.0012 13.7355 67.0018 14.0874C67.0018 14.8218 67.5954 15.4175 68.3264 15.4175ZM56.9799 27.0115V12.7594H59.3341V24.9273H65.6819V27.0122L56.9799 27.0115ZM73.7358 21.1955V27.0115H71.4578V16.9108H73.7072V18.6421L73.7358 18.623C73.9643 18.0811 74.3328 17.6282 74.8415 17.2644C75.3494 16.8945 75.9975 16.7095 76.7856 16.7095C77.4846 16.7095 78.1198 16.8659 78.6916 17.1787C79.2635 17.4847 79.7212 17.9335 80.0646 18.5272C80.4073 19.1201 80.5786 19.8477 80.5786 20.7086V27.0122H78.3013V21.0241C78.3013 20.2584 78.098 19.6784 77.6914 19.2833C77.2908 18.8814 76.7536 18.6802 76.0804 18.6802C75.648 18.6802 75.2542 18.7692 74.8986 18.9481C74.5392 19.1302 74.2435 19.4171 74.0506 19.7709C73.8405 20.1408 73.7358 20.6161 73.7358 21.1962V21.1955ZM94.3609 26.8395C94.8824 27.0625 95.4795 27.174 96.1527 27.174C96.7055 27.174 97.1788 27.104 97.5732 26.9639C97.9669 26.817 98.2913 26.6226 98.5449 26.3805C98.806 26.1377 99.0121 25.8732 99.1651 25.5862H99.2032V27.0115H101.385V20.0578C101.385 19.5669 101.29 19.1174 101.1 18.7087C100.909 18.3007 100.633 17.9471 100.27 17.6472C99.9144 17.348 99.4826 17.1182 98.974 16.9584C98.466 16.7925 97.8942 16.7095 97.2584 16.7095C96.388 16.7095 95.6352 16.8591 94.9994 17.159C94.3704 17.4528 93.8781 17.8478 93.5224 18.3456C93.1685 18.8381 92.9664 19.4234 92.941 20.0293H95.1429C95.168 19.7355 95.27 19.4744 95.4475 19.2446C95.6257 19.0154 95.8671 18.8366 96.1724 18.7087C96.477 18.5748 96.8293 18.5081 97.2298 18.5081C97.6303 18.5081 97.9703 18.5748 98.2498 18.7087C98.5354 18.8427 98.755 19.0249 98.9074 19.2541C99.0597 19.4839 99.1365 19.7518 99.1365 20.0578V20.1347C99.1365 20.3638 99.057 20.5332 98.8978 20.6413C98.7455 20.7501 98.4851 20.8296 98.1165 20.8806C97.7541 20.9316 97.2584 20.9922 96.6294 21.0622C96.1146 21.1193 95.6196 21.2057 95.1429 21.3206C94.6939 21.4245 94.2631 21.5955 93.8652 21.8279C93.5026 22.0456 93.201 22.3516 92.9886 22.7173C92.7724 23.0872 92.665 23.5619 92.665 24.1426C92.665 24.8124 92.8173 25.3734 93.1219 25.8263C93.4301 26.2751 93.8599 26.6262 94.3609 26.8395ZM98.0499 25.1463C97.6813 25.3435 97.2271 25.4428 96.6865 25.4428C96.1404 25.4428 95.7052 25.3278 95.3809 25.0987C95.0565 24.8627 94.8947 24.5411 94.8947 24.1324C94.8947 23.8135 94.9838 23.5551 95.1619 23.3572C95.3462 23.16 95.5876 23.0036 95.8861 22.8887C96.1993 22.7703 96.5255 22.6899 96.8578 22.6493C97.1122 22.6112 97.3604 22.5732 97.6018 22.5351L98.2784 22.4106C98.4878 22.3658 98.666 22.3209 98.8122 22.2767C98.9645 22.2318 99.076 22.1842 99.1454 22.1332V23.262C99.149 23.6433 99.0539 24.0191 98.8693 24.3527C98.6911 24.6778 98.4184 24.9423 98.0499 25.1463ZM103.373 27.0115V16.9108H105.565V18.5748H105.594C105.778 18.0008 106.067 17.5643 106.461 17.2644C106.861 16.9584 107.386 16.8054 108.034 16.8054C108.192 16.8054 108.336 16.8122 108.462 16.8244C108.596 16.8312 108.707 16.8374 108.796 16.8435V18.9005C108.43 18.85 108.06 18.8244 107.69 18.8236C107.331 18.82 106.976 18.9089 106.661 19.082C106.35 19.2541 106.102 19.5193 105.917 19.8763C105.74 20.2265 105.651 20.6698 105.651 21.2057V27.0129H103.373V27.0115ZM67.1833 27.0115V16.9108H69.4606V27.0122H67.1826L67.1833 27.0115ZM84.3676 26.5627C85.0986 27.0149 85.9656 27.2414 86.97 27.2414C87.7452 27.2414 88.4503 27.1013 89.0854 26.8204C89.7274 26.5335 90.2612 26.1411 90.6868 25.644C91.1098 25.1457 91.3955 24.5457 91.5158 23.9032H89.3717C89.2758 24.2024 89.1201 24.4676 88.9046 24.6968C88.6829 24.9283 88.4128 25.108 88.1137 25.2231C87.7955 25.3503 87.4269 25.4142 87.008 25.4142C86.4423 25.4142 85.9561 25.2864 85.5494 25.0314C85.1476 24.7743 84.8297 24.4053 84.6348 23.9699C84.4444 23.553 84.3404 23.0811 84.3227 22.5541H91.6497V21.9421C91.6497 21.1635 91.5348 20.4556 91.3063 19.8178C91.0778 19.1738 90.7535 18.619 90.3339 18.1532C89.9158 17.6821 89.3984 17.3098 88.8189 17.0631C88.2341 16.8081 87.5826 16.6803 86.8646 16.6803C85.9309 16.6803 85.1047 16.9067 84.3866 17.3596C83.6686 17.8125 83.1062 18.4374 82.6996 19.2344C82.2929 20.0313 82.0896 20.9439 82.0896 21.9707C82.0896 22.9907 82.2868 23.8998 82.6805 24.6968C83.0551 25.4656 83.6401 26.1131 84.3676 26.5627ZM89.1616 19.8756C88.9683 19.4601 88.6568 19.1107 88.266 18.8712C87.8784 18.6353 87.4208 18.5176 86.8931 18.5176C86.3722 18.5176 85.918 18.6353 85.5304 18.8712C85.1496 19.1072 84.8504 19.4418 84.6348 19.8756C84.4805 20.1898 84.3832 20.5468 84.3424 20.9466H89.454C89.4211 20.575 89.3221 20.2123 89.1616 19.8756Z" fill="#183654"/>
</svg>
