<svg width="136" height="40" viewBox="0 0 136 40" fill="none" xmlns="http://www.w3.org/2000/svg">
<path d="M17.9948 20.9649C18.1677 21.3394 18.2566 21.7472 18.2553 22.1597C18.2553 23.0076 17.9391 23.7332 17.3053 24.3357C16.6824 24.9279 15.5591 25.2401 14.5173 25.2401H12.4964C11.9796 25.2401 11.56 24.8198 11.56 24.303V15.8187C11.56 15.3019 11.9789 14.8823 12.4964 14.8823H13.751C14.5683 14.8823 15.6454 14.9408 16.0949 15.1346C16.5535 15.3274 16.9396 15.6598 17.1986 16.0845C17.4648 16.5062 17.603 16.9962 17.5964 17.4949C17.5964 17.9641 17.4869 18.4081 17.2441 18.812C17.1142 19.0296 16.7307 19.3485 16.3479 19.5396C16.6648 19.6824 17.0551 19.8456 17.2904 20.0299C17.4434 20.1625 17.576 20.3107 17.6888 20.4746C17.8112 20.6276 17.9132 20.7908 17.9948 20.9642V20.9649ZM13.0002 23.8141H13.9964C14.7009 23.8141 15.4544 23.7175 15.7508 23.5849C16.067 23.4517 16.3016 23.2579 16.4553 23.0022C16.6389 22.7472 16.7307 22.4663 16.7307 22.159C16.7307 21.7612 16.6036 21.4293 16.3479 21.1641C16.1133 20.8881 15.7604 20.6841 15.2905 20.5515C15.1273 20.5107 14.6499 20.5154 14.3636 20.5052C14.078 20.4848 13.7306 20.4746 13.3219 20.4746H13.0002V23.8148V23.8141ZM15.2068 18.8351C15.4754 18.7408 15.7073 18.5641 15.8697 18.3304C16.0321 18.0966 16.1166 17.8175 16.1112 17.5329C16.1106 17.1549 15.9827 16.8584 15.7277 16.6442C15.4625 16.4198 15.0069 16.3069 14.3636 16.3069H13.0002V19.0187H13.7822C14.435 19.0187 14.9104 18.9575 15.2068 18.8351ZM22.0028 23.8297H25.6027C25.7858 23.8354 25.9596 23.9122 26.0871 24.0437C26.2146 24.1753 26.2859 24.3513 26.2859 24.5346C26.2859 24.7178 26.2146 24.8938 26.0871 25.0254C25.9596 25.1569 25.7858 25.2337 25.6027 25.2394H21.4989C20.9821 25.2394 20.5625 24.8198 20.5625 24.303V15.6024C20.5625 15.4114 20.6384 15.2283 20.7734 15.0932C20.9085 14.9582 21.0917 14.8823 21.2826 14.8823C21.4736 14.8823 21.6568 14.9582 21.7918 15.0932C21.9269 15.2283 22.0028 15.4114 22.0028 15.6024V23.8297ZM37.1103 16.1226C38.1623 17.1753 38.6879 18.4618 38.6879 19.9843C38.6879 21.5055 38.1623 22.7927 37.1103 23.8447C36.0577 24.8967 34.7759 25.4223 33.2642 25.4223C31.7424 25.4223 30.445 24.8967 29.3726 23.8447C28.3206 22.7927 27.795 21.5211 27.795 20.0299C27.795 19.0391 28.0344 18.1198 28.5144 17.2718C28.979 16.4398 29.6627 15.7509 30.4912 15.2801C31.3031 14.8014 32.2299 14.5525 33.1724 14.56C34.7351 14.56 36.0482 15.0809 37.1103 16.1226ZM37.2021 19.9843C37.2021 19.2384 37.0335 18.5638 36.6962 17.9613C36.3494 17.3691 35.8584 16.889 35.2254 16.5211C34.6148 16.1695 33.9226 15.9845 33.218 15.9846C32.5339 15.9846 31.8804 16.1634 31.2569 16.5218C30.657 16.8766 30.1565 17.3771 29.8017 17.977C29.4549 18.5795 29.2808 19.2635 29.2808 20.0299C29.2808 20.6018 29.3774 21.1179 29.5718 21.5776C29.7554 22.0373 30.041 22.4609 30.43 22.8492C30.8176 23.2368 31.2467 23.5231 31.7166 23.7067C32.166 23.9011 32.6665 23.9977 33.218 23.9977C33.9258 23.9997 34.6222 23.8204 35.241 23.4768C35.8475 23.1359 36.3462 22.6318 36.6806 22.0216C37.028 21.4293 37.2021 20.75 37.2021 19.9843ZM49.776 16.1226C50.8286 17.1753 51.355 18.4618 51.355 19.9843C51.355 21.5055 50.8286 22.7927 49.7767 23.8447C48.7247 24.8967 47.4422 25.4223 45.9306 25.4223C44.4088 25.4223 43.112 24.8967 42.039 23.8447C40.987 22.7927 40.4614 21.5211 40.4614 20.0299C40.4614 19.0391 40.7007 18.1198 41.1808 17.2718C41.6453 16.4397 42.329 15.7509 43.1576 15.2801C43.9695 14.8014 44.8963 14.5525 45.8388 14.56C47.4014 14.56 48.7138 15.0809 49.776 16.1226ZM49.8685 19.9843C49.8685 19.2384 49.6998 18.5638 49.3626 17.9613C49.0158 17.3691 48.5255 16.889 47.8917 16.5211C47.2813 16.1696 46.5894 15.9846 45.885 15.9846C45.2003 15.9846 44.5468 16.1634 43.9232 16.5218C43.3235 16.8767 42.8229 17.3772 42.468 17.977C42.1212 18.5795 41.9472 19.2635 41.9472 20.0299C41.9472 20.6018 42.0444 21.1179 42.2382 21.5776C42.4218 22.0373 42.7081 22.4609 43.0964 22.8492C43.4608 23.2215 43.899 23.5135 44.3829 23.7067C44.8331 23.9011 45.3329 23.9977 45.885 23.9977C46.5926 23.9996 47.2888 23.8203 47.9074 23.4768C48.5141 23.136 49.0131 22.6319 49.3476 22.0216C49.6944 21.4293 49.8685 20.75 49.8685 19.9843ZM63.2366 14.8667C63.4052 14.8667 63.5494 14.9911 63.5725 15.1577L64.9407 24.6893C64.9501 24.7557 64.9452 24.8234 64.9262 24.8877C64.9072 24.9521 64.8747 25.0116 64.8307 25.0623C64.7867 25.1129 64.7324 25.1536 64.6714 25.1814C64.6103 25.2093 64.544 25.2237 64.4769 25.2237H64.2294C64.0487 25.2238 63.874 25.1584 63.7378 25.0396C63.6015 24.9209 63.5128 24.7568 63.4882 24.5777L62.6729 18.6821L59.5585 24.9837C59.5228 25.0558 59.4677 25.1166 59.3994 25.159C59.3311 25.2015 59.2522 25.2241 59.1718 25.2242C59.0913 25.2242 59.0124 25.2018 58.944 25.1594C58.8756 25.1171 58.8204 25.0564 58.7846 24.9844L55.6254 18.6359L54.8243 24.575C54.8 24.7547 54.7113 24.9194 54.5748 25.0387C54.4382 25.158 54.2631 25.2237 54.0818 25.2237H53.8519C53.7848 25.2237 53.7185 25.2093 53.6575 25.1814C53.5964 25.1536 53.5421 25.1129 53.4981 25.0623C53.4542 25.0116 53.4216 24.9521 53.4026 24.8877C53.3836 24.8234 53.3787 24.7557 53.3882 24.6893L54.7556 15.1584C54.766 15.0866 54.7991 15.02 54.85 14.9684C54.901 14.9167 54.9671 14.8827 55.0387 14.8713C55.1103 14.86 55.1837 14.8718 55.2482 14.9051C55.3126 14.9383 55.3647 14.9914 55.3969 15.0564L59.1797 22.6962L62.932 15.0564C62.9599 14.9994 63.0033 14.9515 63.0571 14.9179C63.111 14.8844 63.1732 14.8666 63.2366 14.8667ZM74.4097 15.6024C74.4067 15.506 74.4231 15.41 74.458 15.3201C74.4928 15.2302 74.5454 15.1482 74.6125 15.079C74.6796 15.0097 74.76 14.9547 74.8488 14.9171C74.9376 14.8795 75.033 14.8602 75.1295 14.8602C75.2259 14.8602 75.3213 14.8795 75.4101 14.9171C75.4989 14.9547 75.5793 15.0097 75.6464 15.079C75.7136 15.1482 75.7661 15.2302 75.8009 15.3201C75.8358 15.41 75.8522 15.506 75.8492 15.6024V24.8504C75.8491 24.9295 75.8248 25.0067 75.7797 25.0717C75.7345 25.1367 75.6706 25.1863 75.5965 25.214C75.5224 25.2417 75.4416 25.2462 75.3649 25.2268C75.2882 25.2074 75.2192 25.165 75.1672 25.1054L69.0928 18.13V24.4961C69.0928 24.6933 69.0145 24.8823 68.8751 25.0217C68.7357 25.1611 68.5466 25.2394 68.3495 25.2394C68.1524 25.2394 67.9634 25.1611 67.824 25.0217C67.6846 24.8823 67.6063 24.6933 67.6063 24.4961V15.2611C67.6059 15.1836 67.6293 15.1079 67.6734 15.0442C67.7174 14.9804 67.7799 14.9317 67.8524 14.9046C67.9249 14.8775 68.0041 14.8733 68.0791 14.8925C68.1541 14.9117 68.2214 14.9535 68.272 15.0122L74.4097 22.0835V15.6024ZM83.0994 14.8517C83.2633 14.8517 83.4122 14.9469 83.4816 15.0951L87.8975 24.5424C87.9309 24.6137 87.9458 24.6923 87.9408 24.7708C87.9357 24.8494 87.9109 24.9255 87.8687 24.9919C87.8264 25.0584 87.7681 25.1131 87.6991 25.151C87.6301 25.1889 87.5526 25.2088 87.4738 25.2088H87.1032C86.8149 25.2088 86.5518 25.0435 86.4273 24.7831L85.0687 21.9455H81.1002L79.7558 24.7811C79.6321 25.0422 79.3682 25.2095 79.0792 25.2095H78.6828C78.6038 25.2094 78.5262 25.1895 78.457 25.1514C78.3878 25.1134 78.3294 25.0584 78.2871 24.9917C78.2449 24.9251 78.2202 24.8488 78.2153 24.77C78.2104 24.6912 78.2255 24.6124 78.2592 24.541L82.7172 15.0938C82.7514 15.0213 82.8055 14.9601 82.8732 14.9172C82.9408 14.8744 83.0193 14.8516 83.0994 14.8517ZM84.4254 20.5358L83.0919 17.7165L81.7591 20.5358H84.4254ZM88.4218 15.5324C88.4218 15.1393 88.7414 14.8204 89.1351 14.8204H95.1408C95.2362 14.8175 95.3312 14.8337 95.4202 14.8682C95.5092 14.9027 95.5904 14.9546 95.6589 15.0211C95.7274 15.0875 95.7819 15.167 95.8191 15.2549C95.8563 15.3428 95.8755 15.4373 95.8755 15.5327C95.8755 15.6282 95.8563 15.7226 95.8191 15.8105C95.7819 15.8984 95.7274 15.9779 95.6589 16.0444C95.5904 16.1108 95.5092 16.1628 95.4202 16.1973C95.3312 16.2317 95.2362 16.248 95.1408 16.245H92.8812V24.4574C92.8812 24.6525 92.8037 24.8397 92.6657 24.9776C92.5277 25.1156 92.3406 25.1931 92.1454 25.1931C91.9503 25.1931 91.7632 25.1156 91.6252 24.9776C91.4872 24.8397 91.4097 24.6525 91.4097 24.4574V16.245H89.1351C89.0415 16.2451 88.9488 16.2268 88.8623 16.191C88.7758 16.1553 88.6972 16.1029 88.631 16.0368C88.5647 15.9707 88.5122 15.8921 88.4763 15.8057C88.4404 15.7193 88.4218 15.626 88.4218 15.5324ZM98.923 15.6099C98.923 15.5143 98.9418 15.4197 98.9784 15.3315C99.0149 15.2432 99.0685 15.163 99.1361 15.0954C99.2037 15.0278 99.2839 14.9742 99.3722 14.9377C99.4604 14.9011 99.555 14.8823 99.6506 14.8823C99.7461 14.8823 99.8408 14.9011 99.929 14.9377C100.017 14.9742 100.098 15.0278 100.165 15.0954C100.233 15.163 100.286 15.2432 100.323 15.3315C100.359 15.4197 100.378 15.5143 100.378 15.6099V24.5111C100.378 24.6066 100.359 24.7013 100.323 24.7895C100.286 24.8778 100.233 24.958 100.165 25.0256C100.098 25.0932 100.017 25.1467 99.929 25.1833C99.8408 25.2199 99.7461 25.2387 99.6506 25.2387C99.555 25.2387 99.4604 25.2199 99.3722 25.1833C99.2839 25.1467 99.2037 25.0932 99.1361 25.0256C99.0685 24.958 99.0149 24.8778 98.9784 24.7895C98.9418 24.7013 98.923 24.6066 98.923 24.5111V15.6099ZM112.34 16.1226C113.392 17.1753 113.918 18.4618 113.918 19.9843C113.918 21.5055 113.392 22.7927 112.34 23.8447C111.288 24.8967 110.006 25.4223 108.494 25.4223C106.972 25.4223 105.675 24.8967 104.602 23.8447C103.55 22.7927 103.025 21.5211 103.025 20.0299C103.025 19.0391 103.265 18.1198 103.745 17.2718C104.209 16.4398 104.893 15.7509 105.721 15.2801C106.533 14.8014 107.46 14.5525 108.402 14.56C109.966 14.56 111.278 15.0809 112.34 16.1226ZM112.432 19.9843C112.432 19.2384 112.263 18.5638 111.927 17.9613C111.579 17.3691 111.089 16.889 110.455 16.5211C109.845 16.1695 109.153 15.9845 108.448 15.9846C107.764 15.9846 107.11 16.1634 106.487 16.5218C105.887 16.8766 105.387 17.3771 105.031 17.977C104.685 18.5795 104.511 19.2635 104.511 20.0299C104.511 20.6018 104.608 21.1179 104.802 21.5776C104.986 22.0373 105.272 22.4609 105.66 22.8492C106.024 23.2216 106.463 23.5137 106.947 23.7067C107.396 23.9011 107.897 23.9977 108.448 23.9977C109.156 23.9997 109.852 23.8204 110.471 23.4768C111.077 23.1359 111.576 22.6318 111.911 22.0216C112.258 21.4293 112.432 20.75 112.432 19.9843ZM122.831 15.6024C122.831 15.5078 122.85 15.4142 122.886 15.3268C122.922 15.2395 122.975 15.1601 123.042 15.0932C123.109 15.0263 123.188 14.9733 123.276 14.9371C123.363 14.9009 123.457 14.8823 123.551 14.8823C123.646 14.8823 123.739 14.9009 123.827 14.9371C123.914 14.9733 123.994 15.0263 124.06 15.0932C124.127 15.1601 124.18 15.2395 124.217 15.3268C124.253 15.4142 124.271 15.5078 124.271 15.6024V24.8606C124.271 24.9377 124.247 25.013 124.203 25.0763C124.159 25.1396 124.097 25.188 124.025 25.2151C123.953 25.2421 123.874 25.2465 123.799 25.2276C123.724 25.2087 123.657 25.1675 123.606 25.1095L117.514 18.13V24.4961C117.517 24.5956 117.5 24.6946 117.464 24.7874C117.428 24.8802 117.374 24.9647 117.305 25.0362C117.235 25.1076 117.153 25.1643 117.061 25.2031C116.969 25.2419 116.871 25.2619 116.771 25.2619C116.672 25.2619 116.573 25.2419 116.482 25.2031C116.39 25.1643 116.307 25.1076 116.238 25.0362C116.169 24.9647 116.114 24.8802 116.078 24.7874C116.042 24.6946 116.025 24.5956 116.028 24.4961V15.2611C116.028 15.1839 116.052 15.1086 116.096 15.0452C116.14 14.9818 116.202 14.9333 116.274 14.9063C116.347 14.8792 116.425 14.8748 116.5 14.8938C116.575 14.9127 116.642 14.954 116.693 15.0122L122.831 22.0835V15.6024Z" fill="#183654"/>
</svg>
