<svg width="136" height="40" viewBox="0 0 136 40" fill="none" xmlns="http://www.w3.org/2000/svg">
<path d="M57.8184 20.5406L56.5774 20.4264C55.7634 20.3557 55.435 20.0701 55.435 19.5703C55.435 18.9855 55.9348 18.5999 56.9051 18.5999C57.8184 18.5999 58.2753 18.9991 58.3467 19.6417H61.2578C61.0722 17.7438 59.7312 16.4021 56.9908 16.4021C54.1368 16.4021 52.566 17.8573 52.566 19.7838C52.566 21.5824 53.5507 22.567 55.9919 22.7676L57.22 22.8669C58.1747 22.939 58.5181 23.2667 58.5181 23.8373C58.5181 24.437 58.019 24.879 56.9908 24.879C56.034 24.879 55.4642 24.4506 55.3642 23.6958H52.2954C52.566 25.7644 54.0226 27.1339 56.9765 27.1339C59.8454 27.1339 61.4292 25.6651 61.4292 23.6802C61.4292 21.7537 60.3731 20.7698 57.8184 20.5406ZM47.7714 16.4021C45.9449 16.4021 44.8596 17.3582 44.3462 19.3139H44.1606V16.5735H41.2774V26.9639H44.3462V20.9119C44.3462 19.5274 45.0602 18.7713 46.344 18.7713C47.6143 18.7713 48.2426 19.5567 48.2426 20.8976V26.9632H51.3108V20.3557C51.3108 17.8431 49.9984 16.4021 47.7714 16.4021ZM38.2949 12.52C37.2531 12.52 36.4677 13.2055 36.4677 14.2472C36.4677 15.289 37.2388 15.9744 38.2806 15.9744C39.3224 15.9744 40.0928 15.2883 40.0928 14.2472C40.0928 13.2191 39.3224 12.52 38.2949 12.52ZM39.8215 16.5728H36.754V26.9632H39.8222L39.8215 16.5728ZM66.2531 14.3751H64.2981C64.241 16.0458 63.527 16.7727 61.9283 16.9013V19.014H63.1849V23.5809C63.1849 25.8786 64.4973 27.1339 67.1092 27.1339C67.6002 27.1339 68.0898 27.072 68.5651 26.9489V24.4792C68.3202 24.52 68.0721 24.5391 67.8239 24.5363C66.7243 24.5363 66.2531 24.1222 66.2531 22.9655V19.014H68.9506V16.5728H66.2531V14.3751ZM114.92 19.014V16.5728H112.223V14.3751H110.296C110.253 15.5311 109.91 16.2022 109.154 16.5735V23.5809C109.154 25.8786 110.467 27.1339 113.079 27.1339C113.57 27.134 114.06 27.0718 114.535 26.9489V24.4792C114.29 24.5199 114.041 24.5391 113.793 24.5363C112.694 24.5363 112.223 24.1222 112.223 22.9655V19.014H114.92ZM104.873 19.4703H104.687V16.5728H101.847V26.9632H104.916V21.3396C104.916 19.7838 105.615 19.1276 107.214 19.1276C107.485 19.1276 107.784 19.1568 108.198 19.2275V16.5449C107.919 16.4468 107.624 16.3985 107.328 16.4021C106.085 16.4021 105.229 17.1161 104.873 19.4703ZM85.2774 24.5091C83.8358 24.5091 82.7941 23.5517 82.7941 21.6966C82.7941 20.0415 83.7644 19.014 85.2489 19.014C86.5191 19.014 87.2467 19.7273 87.4609 20.8691H90.5719C90.2727 18.2001 88.3606 16.4015 85.2917 16.4015C81.9237 16.4015 79.7116 18.6856 79.7116 21.8115C79.7116 25.0504 81.838 27.1339 85.2489 27.1339C88.3463 27.1339 90.3584 25.4081 90.644 22.6099H87.5323C87.3616 23.7523 86.5762 24.5084 85.2774 24.5084V24.5091ZM74.2744 16.4021C71.6054 16.4021 69.9931 17.7145 69.7068 20.0694H72.6471C72.7464 19.2561 73.2754 18.8277 74.2023 18.8277C75.1441 18.8277 75.5725 19.2561 75.5725 19.8701C75.5725 20.3835 75.2447 20.6555 74.4029 20.8119L73.0034 21.069C70.535 21.5253 69.5926 22.5385 69.5926 24.1514C69.5926 25.9922 70.8914 27.1489 72.69 27.1489C74.1594 27.1489 75.1162 26.4634 75.5589 24.7512H75.7438V26.9632H78.6413V20.1836C78.6413 17.8288 77.2283 16.4021 74.2744 16.4021ZM73.9316 25.0504C73.1041 25.0504 72.6328 24.6084 72.6328 23.9515C72.6328 23.4095 72.9613 23.0383 73.7746 22.8526L74.3451 22.7241C74.8374 22.6105 75.2196 22.4582 75.5732 22.1529V23.2525C75.5732 24.522 74.902 25.0504 73.9316 25.0504ZM96.0813 16.4021C93.4123 16.4021 91.8 17.7145 91.5144 20.0694H94.454C94.5547 19.2561 95.0824 18.8277 96.0099 18.8277C96.9517 18.8277 97.3801 19.2561 97.3801 19.8701C97.3801 20.3835 97.0516 20.6555 96.2098 20.8119L94.811 21.069C92.342 21.5253 91.3995 22.5385 91.3995 24.1514C91.3995 25.9922 92.6983 27.1489 94.4969 27.1489C95.967 27.1489 96.9231 26.4634 97.3658 24.7512H97.5514V26.9632H100.449V20.1836C100.449 17.8288 99.0352 16.4021 96.0813 16.4021ZM95.7386 25.0504C94.911 25.0504 94.4398 24.6084 94.4398 23.9515C94.4398 23.4095 94.7682 23.0383 95.5815 22.8526L96.152 22.7241C96.6443 22.6105 97.0272 22.4582 97.3801 22.1529V23.2525C97.3801 24.522 96.7096 25.0504 95.7386 25.0504Z" fill="#183654"/>
<path d="M31.588 15.0061C30.957 15.0061 30.5068 15.2808 30.092 15.8779L28.8952 17.5962V12.6914H26.0413V17.5962L24.8445 15.8779C24.4304 15.2808 23.9809 15.0061 23.3492 15.0061C22.3972 15.0061 21.7634 15.7092 21.76 16.5749C21.7573 17.3168 22.1068 17.8002 22.8446 18.2749L27.4686 21.254L32.0926 18.2756C32.8297 17.8002 33.1799 17.3168 33.1772 16.5756C33.1745 15.7092 32.54 15.0061 31.588 15.0061Z" fill="#183654"/>
<path d="M27.4686 21.9679C30.2165 21.9679 32.47 24.0195 32.4632 26.9632H22.474C22.4679 24.0201 24.7201 21.9679 27.4686 21.9679Z" fill="#183654"/>
</svg>
