<svg width="136" height="40" viewBox="0 0 136 40" fill="none" xmlns="http://www.w3.org/2000/svg">
<path d="M55.046 25.542L55.9436 23.4612C56.9761 24.1931 58.2141 24.5788 59.4796 24.5628C60.418 24.5628 61.0096 24.2024 61.0096 23.6516C60.996 22.1148 55.3792 23.3184 55.3384 19.4696C55.318 17.518 57.0588 16.0152 59.5204 16.0152C60.9824 16.0152 62.4444 16.3756 63.4848 17.2052L62.6416 19.32C61.6698 18.6801 60.5405 18.3202 59.3776 18.2796C58.6092 18.2796 58.0992 18.64 58.0992 19.1024C58.1128 20.6052 63.7704 19.7824 63.8316 23.4544C63.8316 25.4536 62.1384 26.8544 59.704 26.8544C57.9292 26.8544 56.2904 26.4328 55.046 25.5352M89.4812 22.72C89.2003 23.2169 88.7628 23.6069 88.2369 23.8289C87.711 24.0509 87.1264 24.0926 86.5743 23.9474C86.0223 23.8021 85.5338 23.4782 85.1853 23.0261C84.8368 22.574 84.6478 22.0192 84.6478 21.4484C84.6478 20.8775 84.8368 20.3228 85.1853 19.8707C85.5338 19.4186 86.0223 19.0947 86.5743 18.9494C87.1264 18.8042 87.711 18.8458 88.2369 19.0679C88.7628 19.2899 89.2003 19.6799 89.4812 20.1768L91.9564 18.8032C91.3709 17.7543 90.4538 16.9294 89.3491 16.4578C88.2443 15.9861 87.0143 15.8944 85.8518 16.1969C84.6893 16.4994 83.66 17.1792 82.9253 18.1295C82.1906 19.0799 81.792 20.2472 81.792 21.4484C81.792 22.6496 82.1906 23.8169 82.9253 24.7673C83.66 25.7176 84.6893 26.3973 85.8518 26.6999C87.0143 27.0024 88.2443 26.9106 89.3491 26.439C90.4538 25.9673 91.3709 25.1424 91.9564 24.0936L89.4812 22.72ZM65.076 11.5204H68.17V26.6572H65.076V11.5204ZM93.1668 11.5204V26.664H96.2676V22.1216L99.9396 26.664H103.911L99.2324 21.2716L103.564 16.2396H99.7696L96.2676 20.4216V11.5204H93.1668ZM77.384 22.7404C77.1214 23.1417 76.762 23.4704 76.339 23.6962C75.9159 23.922 75.4428 24.0376 74.9632 24.0324C74.2761 24.0324 73.6171 23.7594 73.1312 23.2736C72.6454 22.7877 72.3724 22.1287 72.3724 21.4416C72.3724 20.7545 72.6454 20.0955 73.1312 19.6096C73.6171 19.1237 74.2761 18.8508 74.9632 18.8508C76.0036 18.8508 76.9352 19.4288 77.3772 20.1836V22.7404H77.384ZM77.384 16.2328V17.4568C76.874 16.6068 75.616 16.0152 74.2968 16.0152C71.5768 16.0152 69.4348 18.4156 69.4348 21.4212C69.4348 24.4336 71.5768 26.8612 74.2968 26.8612C75.616 26.8612 76.874 26.2696 77.3772 25.4128V26.6368H80.478V16.2328H77.3772H77.384Z" fill="#183654"/>
<path d="M35.8972 22.72C35.8972 23.0963 35.7857 23.4641 35.5768 23.7771C35.3679 24.0901 35.0709 24.3341 34.7234 24.4784C34.3759 24.6227 33.9934 24.6608 33.6242 24.5879C33.2551 24.515 32.9158 24.3343 32.6493 24.0687C32.3827 23.8031 32.2009 23.4645 32.1266 23.0956C32.0524 22.7267 32.0891 22.3441 32.2322 21.9961C32.3753 21.648 32.6182 21.3502 32.9305 21.1402C33.2427 20.9302 33.6101 20.8173 33.9864 20.816H35.8972V22.72ZM36.8492 22.72C36.8492 22.2132 37.0505 21.7272 37.4089 21.3689C37.7672 21.0105 38.2532 20.8092 38.76 20.8092C39.2668 20.8092 39.7528 21.0105 40.1111 21.3689C40.4695 21.7272 40.6708 22.2132 40.6708 22.72V27.4936C40.6708 28.0004 40.4695 28.4864 40.1111 28.8447C39.7528 29.2031 39.2668 29.4044 38.76 29.4044C38.2532 29.4044 37.7672 29.2031 37.4089 28.8447C37.0505 28.4864 36.8492 28.0004 36.8492 27.4936V22.7268V22.72Z" fill="#183654"/>
<path d="M38.76 15.0632C38.3837 15.0619 38.0163 14.9491 37.7041 14.7391C37.3918 14.529 37.1489 14.2312 37.0058 13.8832C36.8627 13.5351 36.826 13.1525 36.9002 12.7836C36.9745 12.4147 37.1563 12.0761 37.4229 11.8105C37.6894 11.5449 38.0287 11.3643 38.3979 11.2913C38.767 11.2184 39.1495 11.2565 39.497 11.4008C39.8445 11.5451 40.1415 11.7892 40.3504 12.1021C40.5593 12.4151 40.6708 12.783 40.6708 13.1592V15.0632H38.7668H38.76ZM38.76 16.0288C39.2668 16.0288 39.7528 16.2302 40.1111 16.5885C40.4695 16.9468 40.6708 17.4329 40.6708 17.9396C40.6708 18.4464 40.4695 18.9324 40.1111 19.2908C39.7528 19.6491 39.2668 19.8504 38.76 19.8504H33.9728C33.466 19.8504 32.98 19.6491 32.6217 19.2908C32.2633 18.9324 32.062 18.4464 32.062 17.9396C32.062 17.4329 32.2633 16.9468 32.6217 16.5885C32.98 16.2302 33.466 16.0288 33.9728 16.0288H38.76Z" fill="#183654"/>
<path d="M46.4168 17.9396C46.4168 17.5633 46.5283 17.1954 46.7372 16.8825C46.9461 16.5695 47.2431 16.3255 47.5906 16.1812C47.9381 16.0369 48.3206 15.9988 48.6898 16.0717C49.0589 16.1446 49.3982 16.3253 49.6647 16.5909C49.9313 16.8565 50.1132 17.1951 50.1874 17.564C50.2616 17.9329 50.2249 18.3155 50.0818 18.6635C49.9388 19.0115 49.6958 19.3094 49.3836 19.5194C49.0714 19.7294 48.7039 19.8422 48.3276 19.8436H46.4236V17.9396H46.4168ZM45.4648 17.9396C45.4648 18.4464 45.2635 18.9324 44.9052 19.2907C44.5468 19.6491 44.0608 19.8504 43.554 19.8504C43.0472 19.8504 42.5612 19.6491 42.2029 19.2907C41.8445 18.9324 41.6432 18.4464 41.6432 17.9396V13.1524C41.6432 12.6456 41.8445 12.1596 42.2029 11.8012C42.5612 11.4429 43.0472 11.2416 43.554 11.2416C44.0608 11.2416 44.5468 11.4429 44.9052 11.8012C45.2635 12.1596 45.4648 12.6456 45.4648 13.1524V17.9396Z" fill="#183654"/>
<path d="M43.554 25.5895C43.9303 25.5909 44.2977 25.7037 44.61 25.9137C44.9222 26.1237 45.1652 26.4216 45.3082 26.7696C45.4513 27.1176 45.488 27.5002 45.4138 27.8691C45.3396 28.238 45.1577 28.5766 44.8911 28.8422C44.6246 29.1078 44.2853 29.2885 43.9162 29.3614C43.547 29.4343 43.1645 29.3962 42.817 29.2519C42.4695 29.1076 42.1725 28.8636 41.9636 28.5506C41.7547 28.2376 41.6432 27.8698 41.6432 27.4935V25.5895H43.5472H43.554ZM43.554 24.6375C43.0472 24.6375 42.5612 24.4362 42.2029 24.0779C41.8445 23.7195 41.6432 23.2335 41.6432 22.7267C41.6432 22.2199 41.8445 21.7339 42.2029 21.3756C42.5612 21.0172 43.0472 20.8159 43.554 20.8159H48.3412C48.8471 20.8159 49.3322 21.0169 49.69 21.3746C50.0477 21.7323 50.2486 22.2174 50.2486 22.7233C50.2486 23.2292 50.0477 23.7143 49.69 24.0721C49.3322 24.4298 48.8471 24.6307 48.3412 24.6307H43.554V24.6375Z" fill="#183654"/>
</svg>
