<svg width="68" height="22" viewBox="0 0 68 22" fill="none" xmlns="http://www.w3.org/2000/svg">
<path d="M9.792 8.48405C9.792 9.64005 8.84 10.592 7.684 10.592C6.528 10.592 5.576 9.64005 5.576 8.48405C5.576 7.32805 6.528 6.37605 7.684 6.37605C8.84 6.37605 9.792 7.32805 9.792 8.48405ZM7.684 11.408C6.528 11.408 5.576 12.36 5.576 13.516C5.576 14.672 6.528 15.624 7.684 15.624C8.84 15.624 9.792 14.672 9.792 13.516C9.792 12.36 8.84 11.408 7.684 11.408ZM20.4 11C20.4 16.644 15.844 21.2 10.2 21.2C4.556 21.2 0 16.644 0 11C0 5.35605 4.556 0.800049 10.2 0.800049C15.844 0.800049 20.4 5.35605 20.4 11ZM17.68 11C17.68 6.85205 14.348 3.52005 10.2 3.52005C6.052 3.52005 2.72 6.85205 2.72 11C2.72 15.148 6.052 18.48 10.2 18.48C14.348 18.48 17.68 15.148 17.68 11ZM12.716 11.408C11.56 11.408 10.608 12.36 10.608 13.516C10.608 14.672 11.56 15.624 12.716 15.624C13.872 15.624 14.824 14.672 14.824 13.516C14.824 12.36 13.872 11.408 12.716 11.408ZM12.716 6.37605C11.56 6.37605 10.608 7.32805 10.608 8.48405C10.608 9.64005 11.56 10.592 12.716 10.592C13.872 10.592 14.824 9.64005 14.824 8.48405C14.824 7.32805 13.872 6.37605 12.716 6.37605ZM47.804 4.81205C47.872 4.81205 47.94 4.88005 48.008 4.94805V7.12405C48.008 7.26005 47.872 7.32805 47.804 7.32805H44.2C44.064 7.32805 43.996 7.19205 43.996 7.12405V5.01605C43.996 4.88005 44.132 4.81205 44.2 4.81205H47.804ZM47.736 7.87205H40.8C40.732 7.87205 40.596 7.94005 40.596 8.07605L39.712 11.476L39.644 11.68L38.556 8.07605C38.556 8.00805 38.42 7.87205 38.352 7.87205H35.632C35.564 7.87205 35.428 7.94005 35.428 8.07605L34.408 11.476L34.34 11.68L34.272 11.476L33.864 9.77605L33.456 8.07605C33.456 8.00805 33.32 7.87205 33.252 7.87205H27.812V4.94805C27.812 4.88005 27.676 4.74405 27.54 4.81205L24.14 5.90005C24.004 5.90005 23.936 5.96805 23.936 6.10405V7.94005H23.052C22.984 7.94005 22.848 8.00805 22.848 8.14405V10.728C22.848 10.796 22.916 10.932 23.052 10.932H23.936V14.128C23.936 16.372 25.16 17.392 27.404 17.392C28.356 17.392 29.24 17.188 29.852 16.848V14.128C29.852 13.992 29.716 13.924 29.648 13.992C29.308 14.128 28.968 14.196 28.696 14.196C28.084 14.196 27.744 13.924 27.744 13.244V10.932H29.716C29.784 10.932 29.92 10.864 29.92 10.728V8.55205L32.504 17.12C32.504 17.188 32.64 17.324 32.708 17.324H35.564C35.632 17.324 35.768 17.256 35.768 17.12L36.992 13.312L37.604 15.284L38.148 17.12C38.148 17.188 38.284 17.324 38.352 17.324H41.208C41.276 17.324 41.412 17.256 41.412 17.12L43.996 8.55205V17.12C43.996 17.188 44.064 17.324 44.2 17.324H47.668C47.736 17.324 47.872 17.256 47.872 17.12V8.07605C47.872 8.00805 47.804 7.87205 47.736 7.87205ZM52.292 4.81205H48.824C48.756 4.81205 48.62 4.88005 48.62 5.01605V17.052C48.62 17.12 48.688 17.2561 48.824 17.2561H52.292C52.36 17.2561 52.496 17.188 52.496 17.052V4.94805C52.496 4.88005 52.428 4.81205 52.292 4.81205ZM56.916 4.81205H53.312C53.244 4.81205 53.108 4.88005 53.108 5.01605V7.12405C53.108 7.19205 53.176 7.32805 53.312 7.32805H56.916C56.984 7.32805 57.12 7.26005 57.12 7.12405V4.94805C57.12 4.88005 57.052 4.81205 56.916 4.81205ZM56.848 7.87205H53.38C53.312 7.87205 53.176 7.94005 53.176 8.07605V16.984C53.176 17.052 53.244 17.188 53.38 17.188H56.848C56.916 17.188 57.052 17.12 57.052 16.984V8.07605C57.052 8.00805 56.984 7.87205 56.848 7.87205ZM67.796 12.496C67.796 15.08 65.62 17.324 62.56 17.324C59.568 17.324 57.392 15.08 57.392 12.496C57.392 9.91205 59.568 7.66805 62.628 7.66805C65.62 7.66805 67.796 9.91205 67.796 12.496ZM64.124 12.564C64.124 11.612 63.444 10.864 62.628 10.932C61.744 10.932 61.132 11.68 61.132 12.564C61.132 13.448 61.812 14.196 62.628 14.196C63.512 14.196 64.124 13.448 64.124 12.564Z" fill="#183654"/>
</svg>
