<svg width="88" height="24" viewBox="0 0 88 24" fill="none" xmlns="http://www.w3.org/2000/svg">
<path fill-rule="evenodd" clip-rule="evenodd" d="M32.27 18.0796H34.2556L33.9292 16.5496V7.45801H32.0252V11.606C31.454 10.9532 30.6652 10.5656 29.7472 10.5656C27.8432 10.5656 26.3744 12.116 26.3744 14.4008C26.3744 16.6788 27.8432 18.236 29.7404 18.236C30.6924 18.236 31.5016 17.8348 32.0728 17.148L32.2768 18.0796H32.27ZM69.7924 12.6056C70.18 12.6056 70.5404 12.7008 70.86 12.932L71.7644 10.9192C71.3494 10.6718 70.8738 10.5446 70.3908 10.552C69.9868 10.5415 69.5871 10.637 69.2315 10.8291C68.876 11.0212 68.577 11.3031 68.3644 11.6468L68.1604 10.722H66.2088L66.5216 12.1636V18.0796H68.4256V13.3876C68.5569 13.142 68.7548 12.9384 68.9966 12.8001C69.2383 12.6618 69.5141 12.5944 69.7924 12.6056ZM75.3616 16.2504C74.26 16.2504 73.444 15.5296 73.444 14.4008C73.444 13.2584 74.26 12.5444 75.3616 12.5444C76.47 12.5444 77.2656 13.2584 77.2656 14.4008C77.2656 15.5296 76.47 16.2504 75.3616 16.2504ZM28.2172 14.4008C28.2172 13.2584 29.0332 12.5444 30.128 12.5444C31.2432 12.5444 32.0388 13.2584 32.0388 14.4008C32.0388 15.5296 31.2432 16.2504 30.1348 16.2504C29.0332 16.2504 28.2172 15.5296 28.2172 14.4008ZM83.7664 16.2504C82.6648 16.2504 81.8556 15.5296 81.8556 14.4008C81.8556 13.2584 82.6716 12.5444 83.7596 12.5444C84.8816 12.5444 85.6772 13.2584 85.6772 14.4008C85.6772 15.5296 84.8816 16.2504 83.7664 16.2504ZM38.866 12.4288C39.852 12.4288 40.498 12.8912 40.6884 13.7276H37.0368C37.2544 12.8912 37.8936 12.4356 38.866 12.4356V12.4288ZM61.578 12.4288C62.5572 12.4288 63.1964 12.8912 63.4004 13.7276H59.7488C59.9596 12.8912 60.5988 12.4356 61.5712 12.4356L61.578 12.4288ZM52.3096 18.0728H55.3696L57.3416 10.722H55.2812L53.826 16.6788L52.364 10.722H50.324L52.3096 18.0796V18.0728ZM47.4136 18.0728H49.3108V10.7288H47.4136V18.0864V18.0728ZM39.1516 18.2088C40.2124 18.2088 41.2596 17.93 42.1232 17.3724L41.3956 15.7472C40.7156 16.1076 39.954 16.3184 39.1856 16.3184C38.186 16.3184 37.4856 15.9308 37.1864 15.2236H42.5244C42.585 14.9375 42.6146 14.6457 42.6128 14.3532C42.6128 12.0684 41.0284 10.5452 38.9 10.5452C36.758 10.5452 35.1872 12.082 35.1872 14.3804C35.1872 16.7196 36.7444 18.2156 39.1584 18.2156L39.1516 18.2088ZM87.52 14.4008C87.52 12.116 85.922 10.5656 83.7664 10.5656C81.6108 10.5656 80.0128 12.116 80.0128 14.4008C80.0128 16.6788 81.6108 18.236 83.7664 18.236C85.922 18.236 87.52 16.6788 87.52 14.4008ZM61.8296 18.236C62.8836 18.236 63.924 17.9504 64.8012 17.3928L64.0668 15.7676C63.3868 16.1212 62.6252 16.3388 61.8568 16.3388C60.8572 16.3388 60.1568 15.9512 59.8576 15.2372H65.1956C65.2557 14.9533 65.2853 14.6638 65.284 14.3736C65.284 12.0888 63.6996 10.5656 61.5712 10.5656C59.4292 10.5656 57.8584 12.1024 57.8584 14.4008C57.8584 16.74 59.4224 18.236 61.8296 18.236ZM75.3616 18.236C77.5172 18.236 79.1152 16.6788 79.1152 14.4008C79.1152 12.116 77.5172 10.5656 75.3616 10.5656C73.206 10.5656 71.608 12.116 71.608 14.4008C71.608 16.6788 73.206 18.236 75.3616 18.236ZM43.8164 18.0796H45.7204V7.45801H43.8164V18.0796ZM48.3724 9.70881C49.0388 9.70881 49.5556 9.19201 49.5556 8.51201C49.5556 7.83201 49.0388 7.31521 48.3724 7.31521C47.6856 7.31521 47.1688 7.82521 47.1688 8.51201C47.1688 9.19201 47.6856 9.70881 48.3724 9.70881ZM15.7596 0.76001L14.6716 10.96L12.8152 2.35801L7.00798 3.58201L8.85758 12.1704L0.47998 13.9248L1.96238 20.7928L16.698 23.88L20.064 16.4204L21.6688 1.37201L15.7528 0.76001H15.7596ZM11.1016 15.55C10.8024 15.822 10.3944 15.8016 9.97278 15.6588C9.54438 15.5228 9.36078 15.0128 9.51718 14.4008C9.63958 13.9452 10.1972 13.8772 10.4828 13.8704C10.5916 13.8704 10.7004 13.8908 10.7956 13.9384C10.9996 14.02 11.3396 14.2104 11.4076 14.5028C11.5028 14.9244 11.4076 15.278 11.1016 15.55ZM15.372 16.026C15.1476 16.4 14.5696 16.4476 13.9984 16.1756C13.6176 15.992 13.6176 15.516 13.6584 15.2304C13.6788 15.074 13.7468 14.9244 13.8488 14.802C13.9848 14.632 14.2092 14.4076 14.4744 14.394C14.9096 14.3872 15.2768 14.5776 15.4876 14.9244C15.6916 15.2644 15.5896 15.6452 15.372 16.026Z" fill="#183654"/>
</svg>
